<svg xmlns="http://www.w3.org/2000/svg" xmlns:xlink="http://www.w3.org/1999/xlink" contentStyleType="text/css" data-diagram-type="CLASS" height="2137.5px" preserveAspectRatio="none" style="width:1222px;height:2137px;background:#FFFFFF;" version="1.1" viewBox="0 0 1222 2137" width="1222.5px" zoomAndPan="magnify"><?plantuml 1.2026.6?><defs/><g><!--cluster CEVAMED Chunking--><g class="cluster" data-qualified-name="CEVAMED Chunking" data-source-line="18" id="ent0001"><path d="M58.5187,11.25 L352.4634,11.25 A7.0313,7.0313 0 0 1 357.1509,15.9375 L370.2759,53.0566 L1147.8937,53.0566 A4.6875,4.6875 0 0 1 1152.5812,57.7441 L1152.5812,1659.4688 A4.6875,4.6875 0 0 1 1147.8937,1664.1563 L58.5187,1664.1563 A4.6875,4.6875 0 0 1 53.8312,1659.4688 L53.8312,15.9375 A4.6875,4.6875 0 0 1 58.5187,11.25" fill="none" style="stroke:#000000;stroke-width:2.8125;"/><line style="stroke:#000000;stroke-width:2.8125;" x1="53.8312" x2="370.2759" y1="53.0566" y2="53.0566"/><text fill="#000000" font-family="sans-serif" font-size="26.25" font-weight="700" lengthAdjust="spacing" textLength="292.0697" x="61.3312" y="39.3658">CEVAMED Chunking</text></g><!--class BaseChunker--><g class="entity" data-qualified-name="CEVAMED Chunking.BaseChunker" data-source-line="19" id="ent0002"><rect fill="#F7F8FC" height="114.0088" rx="4.6875" ry="4.6875" style="stroke:#374151;stroke-width:0.9375;" width="352.9285" x="291.7499" y="76.875"/><ellipse cx="391.769" cy="106.875" fill="#A9DCDF" rx="20.625" ry="20.625" style="stroke:#181818;stroke-width:1.875;"/><path d="M391.9741,98.1445 L389.8061,107.666 L394.1713,107.666 L391.9741,98.1445 Z M389.1909,93.9551 L394.7866,93.9551 L401.0854,117.1875 L396.4858,117.1875 L395.0503,111.4453 L388.8979,111.4453 L387.4917,117.1875 L382.9213,117.1875 L389.1909,93.9551 Z " fill="#000000"/><text fill="#111827" font-family="sans-serif" font-size="20.625" font-style="italic" lengthAdjust="spacing" textLength="136.9528" x="430.2065" y="114.0152">BaseChunker</text><line style="stroke:#374151;stroke-width:0.9375;" x1="293.6249" x2="642.8034" y1="136.875" y2="136.875"/><line style="stroke:#374151;stroke-width:0.9375;" x1="293.6249" x2="642.8034" y1="151.875" y2="151.875"/><g data-visibility-modifier="PUBLIC_METHOD"><ellipse cx="312.3749" cy="174.1919" fill="#84BE84" rx="5.625" ry="5.625" style="stroke:#038048;stroke-width:1.875;"/></g><text fill="#000000" font-family="sans-serif" font-size="20.625" font-style="italic" lengthAdjust="spacing" textLength="304.1785" x="329.2499" y="178.5196">split_text(text: str): List&lt;str&gt;</text></g><!--class TextSplitter--><g class="entity" data-qualified-name="CEVAMED Chunking.TextSplitter" data-source-line="23" id="ent0003"><rect fill="#F7F8FC" height="306.0791" rx="4.6875" ry="4.6875" style="stroke:#374151;stroke-width:0.9375;" width="511.9464" x="212.2312" y="269.625"/><ellipse cx="399.9518" cy="299.625" fill="#A9DCDF" rx="20.625" ry="20.625" style="stroke:#181818;stroke-width:1.875;"/><path d="M400.1569,290.8945 L397.9889,300.416 L402.3542,300.416 L400.1569,290.8945 Z M397.3737,286.7051 L402.9694,286.7051 L409.2682,309.9375 L404.6686,309.9375 L403.2331,304.1953 L397.0807,304.1953 L395.6745,309.9375 L391.1042,309.9375 L397.3737,286.7051 Z " fill="#000000"/><text fill="#111827" font-family="sans-serif" font-size="20.625" font-style="italic" lengthAdjust="spacing" textLength="120.5676" x="438.3893" y="306.7652">TextSplitter</text><line style="stroke:#374151;stroke-width:0.9375;" x1="214.1062" x2="722.3026" y1="329.625" y2="329.625"/><g data-visibility-modifier="PROTECTED_FIELD"><polygon fill="none" points="232.8562,342.5669,240.3562,350.0669,232.8562,357.5669,225.3562,350.0669" style="stroke:#B38D22;stroke-width:1.875;stroke-linejoin:miter;stroke-miterlimit:10;"/></g><text fill="#000000" font-family="sans-serif" font-size="20.625" lengthAdjust="spacing" textLength="163.5095" x="249.7312" y="356.2696">_chunk_size: int</text><g data-visibility-modifier="PROTECTED_FIELD"><polygon fill="none" points="232.8562,366.5757,240.3562,374.0757,232.8562,381.5757,225.3562,374.0757" style="stroke:#B38D22;stroke-width:1.875;stroke-linejoin:miter;stroke-miterlimit:10;"/></g><text fill="#000000" font-family="sans-serif" font-size="20.625" lengthAdjust="spacing" textLength="200.9729" x="249.7312" y="380.2784">_chunk_overlap: int</text><g data-visibility-modifier="PROTECTED_FIELD"><polygon fill="none" points="232.8562,390.5845,240.3562,398.0845,232.8562,405.5845,225.3562,398.0845" style="stroke:#B38D22;stroke-width:1.875;stroke-linejoin:miter;stroke-miterlimit:10;"/></g><text fill="#000000" font-family="sans-serif" font-size="20.625" lengthAdjust="spacing" textLength="266.7755" x="249.7312" y="404.2872">_length_function: Callable</text><g data-visibility-modifier="PROTECTED_FIELD"><polygon fill="none" points="232.8562,414.5933,240.3562,422.0933,232.8562,429.5933,225.3562,422.0933" style="stroke:#B38D22;stroke-width:1.875;stroke-linejoin:miter;stroke-miterlimit:10;"/></g><text fill="#000000" font-family="sans-serif" font-size="20.625" lengthAdjust="spacing" textLength="228.0734" x="249.7312" y="428.296">_keep_separator: bool</text><g data-visibility-modifier="PROTECTED_FIELD"><polygon fill="none" points="232.8562,438.6021,240.3562,446.1021,232.8562,453.6021,225.3562,446.1021" style="stroke:#B38D22;stroke-width:1.875;stroke-linejoin:miter;stroke-miterlimit:10;"/></g><text fill="#000000" font-family="sans-serif" font-size="20.625" lengthAdjust="spacing" textLength="241.2762" x="249.7312" y="452.3047">_strip_whitespace: bool</text><line style="stroke:#374151;stroke-width:1.875;" x1="214.1062" x2="722.3026" y1="464.6689" y2="464.6689"/><g data-visibility-modifier="PUBLIC_METHOD"><ellipse cx="232.8562" cy="486.9858" fill="#84BE84" rx="5.625" ry="5.625" style="stroke:#038048;stroke-width:1.875;"/></g><text fill="#000000" font-family="sans-serif" font-size="20.625" font-style="italic" lengthAdjust="spacing" textLength="304.1785" x="249.7312" y="491.3135">split_text(text: str): List&lt;str&gt;</text><g data-visibility-modifier="PUBLIC_METHOD"><ellipse cx="232.8562" cy="510.9946" fill="#84BE84" rx="5.625" ry="5.625" style="stroke:#038048;stroke-width:1.875;"/></g><text fill="#000000" font-family="sans-serif" font-size="20.625" lengthAdjust="spacing" text-decoration="underline" textLength="463.1964" x="249.7312" y="515.3223">from_huggingface_tokenizer(...): TextSplitter</text><g data-visibility-modifier="PROTECTED_METHOD"><polygon fill="#FFFF44" points="232.8562,525.6284,240.3562,533.1284,232.8562,540.6284,225.3562,533.1284" style="stroke:#B38D22;stroke-width:1.875;stroke-linejoin:miter;stroke-miterlimit:10;"/></g><text fill="#000000" font-family="sans-serif" font-size="20.625" lengthAdjust="spacing" textLength="322.8598" x="249.7312" y="539.3311">_join_docs(docs, separator): str</text><g data-visibility-modifier="PROTECTED_METHOD"><polygon fill="#FFFF44" points="232.8562,549.6372,240.3562,557.1372,232.8562,564.6372,225.3562,557.1372" style="stroke:#B38D22;stroke-width:1.875;stroke-linejoin:miter;stroke-miterlimit:10;"/></g><text fill="#000000" font-family="sans-serif" font-size="20.625" lengthAdjust="spacing" textLength="436.0355" x="249.7312" y="563.3399">_merge_splits(splits, separator): List&lt;str&gt;</text></g><!--class RecursiveTokenChunker--><g class="entity" data-qualified-name="CEVAMED Chunking.RecursiveTokenChunker" data-source-line="36" id="ent0004"><rect fill="#F7F8FC" height="186.0352" rx="4.6875" ry="4.6875" style="stroke:#374151;stroke-width:0.9375;" width="445.751" x="245.3249" y="678.4687"/><ellipse cx="334.7646" cy="708.4687" fill="#ADD1B2" rx="20.625" ry="20.625" style="stroke:#181818;stroke-width:1.875;"/><path d="M340.331,719.0449 Q339.247,719.6016 338.0459,719.8652 Q336.8447,720.1582 335.5263,720.1582 Q330.8388,720.1582 328.3486,717.082 Q325.8877,713.9766 325.8877,708.1172 Q325.8877,702.2578 328.3486,699.1523 Q330.8388,696.0469 335.5263,696.0469 Q336.8447,696.0469 338.0459,696.3398 Q339.2763,696.6328 340.331,697.1895 L340.331,702.2871 Q339.1592,701.2031 338.0459,700.7051 Q336.9326,700.1777 335.7607,700.1777 Q333.2412,700.1777 331.9521,702.1992 Q330.6631,704.1914 330.6631,708.1172 Q330.6631,712.043 331.9521,714.0645 Q333.2412,716.0566 335.7607,716.0566 Q336.9326,716.0566 338.0459,715.5586 Q339.1592,715.0312 340.331,713.9473 L340.331,719.0449 Z " fill="#000000"/><text fill="#111827" font-family="sans-serif" font-size="20.625" lengthAdjust="spacing" textLength="250.9341" x="373.2021" y="715.6089">RecursiveTokenChunker</text><line style="stroke:#374151;stroke-width:0.9375;" x1="247.1999" x2="689.201" y1="738.4687" y2="738.4687"/><g data-visibility-modifier="PROTECTED_FIELD"><polygon fill="none" points="265.9499,751.4106,273.4499,758.9106,265.9499,766.4106,258.4499,758.9106" style="stroke:#B38D22;stroke-width:1.875;stroke-linejoin:miter;stroke-miterlimit:10;"/></g><text fill="#000000" font-family="sans-serif" font-size="20.625" lengthAdjust="spacing" textLength="231.9608" x="282.8249" y="765.1133">_separators: List&lt;str&gt;</text><g data-visibility-modifier="PROTECTED_FIELD"><polygon fill="none" points="265.9499,775.4194,273.4499,782.9194,265.9499,790.4194,258.4499,782.9194" style="stroke:#B38D22;stroke-width:1.875;stroke-linejoin:miter;stroke-miterlimit:10;"/></g><text fill="#000000" font-family="sans-serif" font-size="20.625" lengthAdjust="spacing" textLength="263.6032" x="282.8249" y="789.1221">_is_separator_regex: bool</text><line style="stroke:#374151;stroke-width:1.875;" x1="247.1999" x2="689.201" y1="801.4863" y2="801.4863"/><g data-visibility-modifier="PUBLIC_METHOD"><ellipse cx="265.9499" cy="823.8032" fill="#84BE84" rx="5.625" ry="5.625" style="stroke:#038048;stroke-width:1.875;"/></g><text fill="#000000" font-family="sans-serif" font-size="20.625" lengthAdjust="spacing" textLength="304.1785" x="282.8249" y="828.1309">split_text(text: str): List&lt;str&gt;</text><g data-visibility-modifier="PROTECTED_METHOD"><polygon fill="#FFFF44" points="265.9499,838.437,273.4499,845.937,265.9499,853.437,258.4499,845.937" style="stroke:#B38D22;stroke-width:1.875;stroke-linejoin:miter;stroke-miterlimit:10;"/></g><text fill="#000000" font-family="sans-serif" font-size="20.625" lengthAdjust="spacing" textLength="397.001" x="282.8249" y="852.1397">_split_text(text, separators): List&lt;str&gt;</text></g><!--class TransformerTokenChunker--><g class="entity" data-qualified-name="CEVAMED Chunking.TransformerTokenChunker" data-source-line="44" id="ent0005"><rect fill="#F7F8FC" height="234.0527" rx="4.6875" ry="4.6875" style="stroke:#374151;stroke-width:0.9375;" width="360.6729" x="762.2437" y="654.45"/><ellipse cx="801.1088" cy="684.45" fill="#ADD1B2" rx="20.625" ry="20.625" style="stroke:#181818;stroke-width:1.875;"/><path d="M806.6752,695.0262 Q805.5912,695.5828 804.39,695.8465 Q803.1889,696.1395 801.8705,696.1395 Q797.183,696.1395 794.6928,693.0633 Q792.2318,689.9578 792.2318,684.0984 Q792.2318,678.2391 794.6928,675.1336 Q797.183,672.0281 801.8705,672.0281 Q803.1889,672.0281 804.39,672.3211 Q805.6205,672.6141 806.6752,673.1707 L806.6752,678.2684 Q805.5033,677.1844 804.39,676.6863 Q803.2767,676.159 802.1049,676.159 Q799.5853,676.159 798.2963,678.1805 Q797.0072,680.1727 797.0072,684.0984 Q797.0072,688.0242 798.2963,690.0457 Q799.5853,692.0379 802.1049,692.0379 Q803.2767,692.0379 804.39,691.5398 Q805.5033,691.0125 806.6752,689.9285 L806.6752,695.0262 Z " fill="#000000"/><text fill="#111827" font-family="sans-serif" font-size="20.625" lengthAdjust="spacing" textLength="276.806" x="829.7455" y="691.5902">TransformerTokenChunker</text><line style="stroke:#374151;stroke-width:0.9375;" x1="764.1187" x2="1121.0416" y1="714.45" y2="714.45"/><g data-visibility-modifier="PUBLIC_FIELD"><ellipse cx="782.8687" cy="736.7669" fill="none" rx="5.625" ry="5.625" style="stroke:#038048;stroke-width:1.875;"/></g><text fill="#000000" font-family="sans-serif" font-size="20.625" lengthAdjust="spacing" textLength="173.8422" x="799.7437" y="741.0946">model_name: str</text><g data-visibility-modifier="PROTECTED_FIELD"><polygon fill="none" points="782.8687,751.4007,790.3687,758.9007,782.8687,766.4007,775.3687,758.9007" style="stroke:#B38D22;stroke-width:1.875;stroke-linejoin:miter;stroke-miterlimit:10;"/></g><text fill="#000000" font-family="sans-serif" font-size="20.625" lengthAdjust="spacing" textLength="311.9229" x="799.7437" y="765.1034">_model: SentenceTransformer</text><g data-visibility-modifier="PUBLIC_FIELD"><ellipse cx="782.8687" cy="784.7845" fill="none" rx="5.625" ry="5.625" style="stroke:#038048;stroke-width:1.875;"/></g><text fill="#000000" font-family="sans-serif" font-size="20.625" lengthAdjust="spacing" textLength="96.1359" x="799.7437" y="789.1122">tokenizer</text><g data-visibility-modifier="PUBLIC_FIELD"><ellipse cx="782.8687" cy="808.7933" fill="none" rx="5.625" ry="5.625" style="stroke:#038048;stroke-width:1.875;"/></g><text fill="#000000" font-family="sans-serif" font-size="20.625" lengthAdjust="spacing" textLength="226.9354" x="799.7437" y="813.121">tokens_per_chunk: int</text><line style="stroke:#374151;stroke-width:1.875;" x1="764.1187" x2="1121.0416" y1="825.4852" y2="825.4852"/><g data-visibility-modifier="PUBLIC_METHOD"><ellipse cx="782.8687" cy="847.8021" fill="#84BE84" rx="5.625" ry="5.625" style="stroke:#038048;stroke-width:1.875;"/></g><text fill="#000000" font-family="sans-serif" font-size="20.625" lengthAdjust="spacing" textLength="304.1785" x="799.7437" y="852.1297">split_text(text: str): List&lt;str&gt;</text><g data-visibility-modifier="PUBLIC_METHOD"><ellipse cx="782.8687" cy="871.8108" fill="#84BE84" rx="5.625" ry="5.625" style="stroke:#038048;stroke-width:1.875;"/></g><text fill="#000000" font-family="sans-serif" font-size="20.625" lengthAdjust="spacing" textLength="276.0306" x="799.7437" y="876.1385">count_tokens(text: str): int</text></g><!--class KamradtSemanticChunker--><g class="entity" data-qualified-name="CEVAMED Chunking.KamradtSemanticChunker" data-source-line="54" id="ent0006"><rect fill="#F7F8FC" height="306.0791" rx="4.6875" ry="4.6875" style="stroke:#374151;stroke-width:0.9375;" width="487.6254" x="121.2749" y="967.2562"/><ellipse cx="221.1077" cy="997.2562" fill="#ADD1B2" rx="20.625" ry="20.625" style="stroke:#181818;stroke-width:1.875;"/><path d="M226.6741,1007.8324 Q225.5901,1008.3891 224.3889,1008.6527 Q223.1878,1008.9457 221.8694,1008.9457 Q217.1819,1008.9457 214.6917,1005.8695 Q212.2307,1002.7641 212.2307,996.9047 Q212.2307,991.0453 214.6917,987.9398 Q217.1819,984.8344 221.8694,984.8344 Q223.1878,984.8344 224.3889,985.1273 Q225.6194,985.4203 226.6741,985.977 L226.6741,991.0746 Q225.5022,989.9906 224.3889,989.4926 Q223.2757,988.9652 222.1038,988.9652 Q219.5843,988.9652 218.2952,990.9867 Q217.0061,992.9789 217.0061,996.9047 Q217.0061,1000.8305 218.2952,1002.852 Q219.5843,1004.8441 222.1038,1004.8441 Q223.2757,1004.8441 224.3889,1004.3461 Q225.5022,1003.8187 226.6741,1002.7348 L226.6741,1007.8324 Z " fill="#000000"/><text fill="#111827" font-family="sans-serif" font-size="20.625" lengthAdjust="spacing" textLength="272.0224" x="259.5452" y="1004.3964">KamradtSemanticChunker</text><line style="stroke:#374151;stroke-width:0.9375;" x1="123.1499" x2="607.0254" y1="1027.2563" y2="1027.2563"/><g data-visibility-modifier="PUBLIC_FIELD"><ellipse cx="141.8999" cy="1049.5731" fill="none" rx="5.625" ry="5.625" style="stroke:#038048;stroke-width:1.875;"/></g><text fill="#000000" font-family="sans-serif" font-size="20.625" lengthAdjust="spacing" textLength="173.8422" x="158.7749" y="1053.9008">model_name: str</text><g data-visibility-modifier="PUBLIC_FIELD"><ellipse cx="141.8999" cy="1073.5819" fill="none" rx="5.625" ry="5.625" style="stroke:#038048;stroke-width:1.875;"/></g><text fill="#000000" font-family="sans-serif" font-size="20.625" lengthAdjust="spacing" textLength="108.5632" x="158.7749" y="1077.9096">device: str</text><g data-visibility-modifier="PUBLIC_FIELD"><ellipse cx="141.8999" cy="1097.5907" fill="none" rx="5.625" ry="5.625" style="stroke:#038048;stroke-width:1.875;"/></g><text fill="#000000" font-family="sans-serif" font-size="20.625" lengthAdjust="spacing" textLength="133.5187" x="158.7749" y="1101.9184">epsilon: float</text><g data-visibility-modifier="PROTECTED_FIELD"><polygon fill="none" points="141.8999,1112.2245,149.3999,1119.7245,141.8999,1127.2245,134.3999,1119.7245" style="stroke:#B38D22;stroke-width:1.875;stroke-linejoin:miter;stroke-miterlimit:10;"/></g><text fill="#000000" font-family="sans-serif" font-size="20.625" lengthAdjust="spacing" textLength="438.8754" x="158.7749" y="1125.9272">_embedding_model: SentenceTransformer</text><g data-visibility-modifier="PROTECTED_FIELD"><polygon fill="none" points="141.8999,1136.2333,149.3999,1143.7333,141.8999,1151.2333,134.3999,1143.7333" style="stroke:#B38D22;stroke-width:1.875;stroke-linejoin:miter;stroke-miterlimit:10;"/></g><text fill="#000000" font-family="sans-serif" font-size="20.625" lengthAdjust="spacing" textLength="332.5076" x="158.7749" y="1149.936">_tokenizer: PreTrainedTokenizer</text><line style="stroke:#374151;stroke-width:1.875;" x1="123.1499" x2="607.0254" y1="1162.3002" y2="1162.3002"/><g data-visibility-modifier="PUBLIC_METHOD"><ellipse cx="141.8999" cy="1184.6171" fill="#84BE84" rx="5.625" ry="5.625" style="stroke:#038048;stroke-width:1.875;"/></g><text fill="#000000" font-family="sans-serif" font-size="20.625" lengthAdjust="spacing" textLength="304.1785" x="158.7749" y="1188.9448">split_text(text: str): List&lt;str&gt;</text><g data-visibility-modifier="PUBLIC_METHOD"><ellipse cx="141.8999" cy="1208.6259" fill="#84BE84" rx="5.625" ry="5.625" style="stroke:#038048;stroke-width:1.875;"/></g><text fill="#000000" font-family="sans-serif" font-size="20.625" lengthAdjust="spacing" textLength="289.3945" x="158.7749" y="1212.9536">combine_sentences(...): List</text><g data-visibility-modifier="PUBLIC_METHOD"><ellipse cx="141.8999" cy="1232.6347" fill="#84BE84" rx="5.625" ry="5.625" style="stroke:#038048;stroke-width:1.875;"/></g><text fill="#000000" font-family="sans-serif" font-size="20.625" lengthAdjust="spacing" textLength="420.9796" x="158.7749" y="1236.9624">calculate_sentence_embeddings(...): List</text><g data-visibility-modifier="PUBLIC_METHOD"><ellipse cx="141.8999" cy="1256.6435" fill="#84BE84" rx="5.625" ry="5.625" style="stroke:#038048;stroke-width:1.875;"/></g><text fill="#000000" font-family="sans-serif" font-size="20.625" lengthAdjust="spacing" textLength="380.1627" x="158.7749" y="1260.9712">calculate_cosine_distances(...): tuple</text></g><!--class ClusterSemanticChunker--><g class="entity" data-qualified-name="CEVAMED Chunking.ClusterSemanticChunker" data-source-line="67" id="ent0007"><rect fill="#F7F8FC" height="258.0615" rx="4.6875" ry="4.6875" style="stroke:#374151;stroke-width:0.9375;" width="405.8304" x="679.6687" y="991.2562"/><ellipse cx="747.9138" cy="1021.2562" fill="#ADD1B2" rx="20.625" ry="20.625" style="stroke:#181818;stroke-width:1.875;"/><path d="M753.4802,1031.8324 Q752.3962,1032.3891 751.1951,1032.6527 Q749.9939,1032.9457 748.6755,1032.9457 Q743.988,1032.9457 741.4978,1029.8695 Q739.0369,1026.7641 739.0369,1020.9047 Q739.0369,1015.0453 741.4978,1011.9398 Q743.988,1008.8344 748.6755,1008.8344 Q749.9939,1008.8344 751.1951,1009.1273 Q752.4255,1009.4203 753.4802,1009.977 L753.4802,1015.0746 Q752.3084,1013.9906 751.1951,1013.4926 Q750.0818,1012.9652 748.9099,1012.9652 Q746.3904,1012.9652 745.1013,1014.9867 Q743.8123,1016.9789 743.8123,1020.9047 Q743.8123,1024.8305 745.1013,1026.852 Q746.3904,1028.8441 748.9099,1028.8441 Q750.0818,1028.8441 751.1951,1028.3461 Q752.3084,1027.8188 753.4802,1026.7348 L753.4802,1031.8324 Z " fill="#000000"/><text fill="#111827" font-family="sans-serif" font-size="20.625" lengthAdjust="spacing" textLength="256.6745" x="783.0794" y="1028.3964">ClusterSemanticChunker</text><line style="stroke:#374151;stroke-width:0.9375;" x1="681.5437" x2="1083.6241" y1="1051.2563" y2="1051.2563"/><g data-visibility-modifier="PUBLIC_FIELD"><ellipse cx="700.2937" cy="1073.5731" fill="none" rx="5.625" ry="5.625" style="stroke:#038048;stroke-width:1.875;"/></g><text fill="#000000" font-family="sans-serif" font-size="20.625" lengthAdjust="spacing" textLength="256.463" x="717.1687" y="1077.9008">length_function: Callable</text><g data-visibility-modifier="PUBLIC_FIELD"><ellipse cx="700.2937" cy="1097.5819" fill="none" rx="5.625" ry="5.625" style="stroke:#038048;stroke-width:1.875;"/></g><text fill="#000000" font-family="sans-serif" font-size="20.625" lengthAdjust="spacing" textLength="337.0798" x="717.1687" y="1101.9096">splitter: RecursiveTokenChunker</text><g data-visibility-modifier="PUBLIC_FIELD"><ellipse cx="700.2937" cy="1121.5907" fill="none" rx="5.625" ry="5.625" style="stroke:#038048;stroke-width:1.875;"/></g><text fill="#000000" font-family="sans-serif" font-size="20.625" lengthAdjust="spacing" textLength="211.2048" x="717.1687" y="1125.9184">embedding_function</text><g data-visibility-modifier="PUBLIC_FIELD"><ellipse cx="700.2937" cy="1145.5995" fill="none" rx="5.625" ry="5.625" style="stroke:#038048;stroke-width:1.875;"/></g><text fill="#000000" font-family="sans-serif" font-size="20.625" lengthAdjust="spacing" textLength="165.7855" x="717.1687" y="1149.9272">max_cluster: int</text><line style="stroke:#374151;stroke-width:1.875;" x1="681.5437" x2="1083.6241" y1="1162.2914" y2="1162.2914"/><g data-visibility-modifier="PUBLIC_METHOD"><ellipse cx="700.2937" cy="1184.6083" fill="#84BE84" rx="5.625" ry="5.625" style="stroke:#038048;stroke-width:1.875;"/></g><text fill="#000000" font-family="sans-serif" font-size="20.625" lengthAdjust="spacing" textLength="304.1785" x="717.1687" y="1188.936">split_text(text: str): List&lt;str&gt;</text><g data-visibility-modifier="PROTECTED_METHOD"><polygon fill="#FFFF44" points="700.2937,1199.2421,707.7937,1206.7421,700.2937,1214.2421,692.7937,1206.7421" style="stroke:#B38D22;stroke-width:1.875;stroke-linejoin:miter;stroke-miterlimit:10;"/></g><text fill="#000000" font-family="sans-serif" font-size="20.625" lengthAdjust="spacing" textLength="357.0804" x="717.1687" y="1212.9448">_get_similarity_matrix(...): ndarray</text><g data-visibility-modifier="PROTECTED_METHOD"><polygon fill="#FFFF44" points="700.2937,1223.2509,707.7937,1230.7509,700.2937,1238.2509,692.7937,1230.7509" style="stroke:#B38D22;stroke-width:1.875;stroke-linejoin:miter;stroke-miterlimit:10;"/></g><text fill="#000000" font-family="sans-serif" font-size="20.625" lengthAdjust="spacing" textLength="326.5457" x="717.1687" y="1236.9536">_optimal_segmentation(...): List</text></g><!--class RecursiveSemanticChunker--><g class="entity" data-qualified-name="CEVAMED Chunking.RecursiveSemanticChunker" data-source-line="78" id="ent0008"><rect fill="#F7F8FC" height="282.0703" rx="4.6875" ry="4.6875" style="stroke:#374151;stroke-width:0.9375;" width="428.9127" x="150.6187" y="1352.0812"/><ellipse cx="216.616" cy="1382.0812" fill="#ADD1B2" rx="20.625" ry="20.625" style="stroke:#181818;stroke-width:1.875;"/><path d="M222.1824,1392.6574 Q221.0984,1393.2141 219.8973,1393.4777 Q218.6961,1393.7707 217.3777,1393.7707 Q212.6902,1393.7707 210.2,1390.6945 Q207.7391,1387.5891 207.7391,1381.7297 Q207.7391,1375.8703 210.2,1372.7648 Q212.6902,1369.6594 217.3777,1369.6594 Q218.6961,1369.6594 219.8973,1369.9523 Q221.1277,1370.2453 222.1824,1370.802 L222.1824,1375.8996 Q221.0106,1374.8156 219.8973,1374.3176 Q218.784,1373.7902 217.6121,1373.7902 Q215.0926,1373.7902 213.8035,1375.8117 Q212.5145,1377.8039 212.5145,1381.7297 Q212.5145,1385.6555 213.8035,1387.677 Q215.0926,1389.6691 217.6121,1389.6691 Q218.784,1389.6691 219.8973,1389.1711 Q221.0106,1388.6437 222.1824,1387.5598 L222.1824,1392.6574 Z " fill="#000000"/><text fill="#111827" font-family="sans-serif" font-size="20.625" lengthAdjust="spacing" textLength="284.7519" x="251.2821" y="1389.2214">RecursiveSemanticChunker</text><line style="stroke:#374151;stroke-width:0.9375;" x1="152.4937" x2="577.6563" y1="1412.0812" y2="1412.0812"/><g data-visibility-modifier="PUBLIC_FIELD"><ellipse cx="171.2437" cy="1434.3981" fill="none" rx="5.625" ry="5.625" style="stroke:#038048;stroke-width:1.875;"/></g><text fill="#000000" font-family="sans-serif" font-size="20.625" lengthAdjust="spacing" textLength="256.463" x="188.1187" y="1438.7258">length_function: Callable</text><g data-visibility-modifier="PUBLIC_FIELD"><ellipse cx="171.2437" cy="1458.4069" fill="none" rx="5.625" ry="5.625" style="stroke:#038048;stroke-width:1.875;"/></g><text fill="#000000" font-family="sans-serif" font-size="20.625" lengthAdjust="spacing" textLength="337.0798" x="188.1187" y="1462.7346">splitter: RecursiveTokenChunker</text><g data-visibility-modifier="PUBLIC_FIELD"><ellipse cx="171.2437" cy="1482.4157" fill="none" rx="5.625" ry="5.625" style="stroke:#038048;stroke-width:1.875;"/></g><text fill="#000000" font-family="sans-serif" font-size="20.625" lengthAdjust="spacing" textLength="211.2048" x="188.1187" y="1486.7434">embedding_function</text><g data-visibility-modifier="PUBLIC_FIELD"><ellipse cx="171.2437" cy="1506.4245" fill="none" rx="5.625" ry="5.625" style="stroke:#038048;stroke-width:1.875;"/></g><text fill="#000000" font-family="sans-serif" font-size="20.625" lengthAdjust="spacing" textLength="201.4462" x="188.1187" y="1510.7522">avg_chunk_size: int</text><line style="stroke:#374151;stroke-width:1.875;" x1="152.4937" x2="577.6563" y1="1523.1164" y2="1523.1164"/><g data-visibility-modifier="PUBLIC_METHOD"><ellipse cx="171.2437" cy="1545.4333" fill="#84BE84" rx="5.625" ry="5.625" style="stroke:#038048;stroke-width:1.875;"/></g><text fill="#000000" font-family="sans-serif" font-size="20.625" lengthAdjust="spacing" textLength="304.1785" x="188.1187" y="1549.761">split_text(text: str): List&lt;str&gt;</text><g data-visibility-modifier="PUBLIC_METHOD"><ellipse cx="171.2437" cy="1569.4421" fill="#84BE84" rx="5.625" ry="5.625" style="stroke:#038048;stroke-width:1.875;"/></g><text fill="#000000" font-family="sans-serif" font-size="20.625" lengthAdjust="spacing" textLength="289.3945" x="188.1187" y="1573.7698">combine_sentences(...): List</text><g data-visibility-modifier="PUBLIC_METHOD"><ellipse cx="171.2437" cy="1593.4509" fill="#84BE84" rx="5.625" ry="5.625" style="stroke:#038048;stroke-width:1.875;"/></g><text fill="#000000" font-family="sans-serif" font-size="20.625" lengthAdjust="spacing" textLength="380.1627" x="188.1187" y="1597.7786">calculate_cosine_distances(...): tuple</text><g data-visibility-modifier="PROTECTED_METHOD"><polygon fill="#FFFF44" points="171.2437,1608.0847,178.7437,1615.5847,171.2437,1623.0847,163.7437,1615.5847" style="stroke:#B38D22;stroke-width:1.875;stroke-linejoin:miter;stroke-miterlimit:10;"/></g><text fill="#000000" font-family="sans-serif" font-size="20.625" lengthAdjust="spacing" textLength="341.2692" x="188.1187" y="1621.7874">_find_optimal_threshold(...): float</text></g><!--class Tokenizer--><g class="entity" data-qualified-name="CEVAMED Chunking.Tokenizer" data-source-line="90" id="ent0009"><rect fill="#F7F8FC" height="194.9854" rx="4.6875" ry="4.6875" style="stroke:#374151;stroke-width:0.9375;" width="275.6854" x="795.3562" y="1395.6375"/><ellipse cx="863.5848" cy="1430.1126" fill="#ADD1B2" rx="20.625" ry="20.625" style="stroke:#181818;stroke-width:1.875;"/><path d="M869.1513,1440.6888 Q868.0673,1441.2454 866.8661,1441.5091 Q865.6649,1441.8021 864.3466,1441.8021 Q859.6591,1441.8021 857.1688,1438.7259 Q854.7079,1435.6204 854.7079,1429.761 Q854.7079,1423.9017 857.1688,1420.7962 Q859.6591,1417.6907 864.3466,1417.6907 Q865.6649,1417.6907 866.8661,1417.9837 Q868.0966,1418.2767 869.1513,1418.8333 L869.1513,1423.931 Q867.9794,1422.847 866.8661,1422.3489 Q865.7528,1421.8216 864.5809,1421.8216 Q862.0614,1421.8216 860.7723,1423.8431 Q859.4833,1425.8353 859.4833,1429.761 Q859.4833,1433.6868 860.7723,1435.7083 Q862.0614,1437.7005 864.5809,1437.7005 Q865.7528,1437.7005 866.8661,1437.2024 Q867.9794,1436.6751 869.1513,1435.5911 L869.1513,1440.6888 Z " fill="#000000"/><text fill="#000000" font-family="sans-serif" font-size="22.5" font-style="italic" lengthAdjust="spacing" textLength="134.0662" x="894.9968" y="1425.8975">&#171;dataclass&#187;</text><text fill="#111827" font-family="sans-serif" font-size="20.625" lengthAdjust="spacing" textLength="100.6476" x="911.7061" y="1450.3485">Tokenizer</text><line style="stroke:#374151;stroke-width:0.9375;" x1="797.2312" x2="1069.1666" y1="1464.5877" y2="1464.5877"/><g data-visibility-modifier="PUBLIC_FIELD"><ellipse cx="815.9812" cy="1486.9046" fill="none" rx="5.625" ry="5.625" style="stroke:#038048;stroke-width:1.875;"/></g><text fill="#000000" font-family="sans-serif" font-size="20.625" lengthAdjust="spacing" textLength="190.6604" x="832.8562" y="1491.2323">chunk_overlap: int</text><g data-visibility-modifier="PUBLIC_FIELD"><ellipse cx="815.9812" cy="1510.9134" fill="none" rx="5.625" ry="5.625" style="stroke:#038048;stroke-width:1.875;"/></g><text fill="#000000" font-family="sans-serif" font-size="20.625" lengthAdjust="spacing" textLength="226.9354" x="832.8562" y="1515.2411">tokens_per_chunk: int</text><g data-visibility-modifier="PUBLIC_FIELD"><ellipse cx="815.9812" cy="1534.9222" fill="none" rx="5.625" ry="5.625" style="stroke:#038048;stroke-width:1.875;"/></g><text fill="#000000" font-family="sans-serif" font-size="20.625" lengthAdjust="spacing" textLength="171.6769" x="832.8562" y="1539.2499">decode: Callable</text><g data-visibility-modifier="PUBLIC_FIELD"><ellipse cx="815.9812" cy="1558.931" fill="none" rx="5.625" ry="5.625" style="stroke:#038048;stroke-width:1.875;"/></g><text fill="#000000" font-family="sans-serif" font-size="20.625" lengthAdjust="spacing" textLength="171.6568" x="832.8562" y="1563.2587">encode: Callable</text><line style="stroke:#374151;stroke-width:0.9375;" x1="797.2312" x2="1069.1666" y1="1575.6229" y2="1575.6229"/></g><!--reverse link BaseChunker to TextSplitter--><g class="link" data-entity-1="ent0002" data-entity-2="ent0003" data-link-type="extension" data-source-line="98" id="lnk10"><path codeLine="98" d="M468.2062,225.375 C468.2062,248.0812 468.2062,241.5937 468.2062,269.2875" fill="none" id="BaseChunker-backto-TextSplitter" style="stroke:#374151;stroke-width:1.875;"/><polygon fill="none" points="468.2062,191.625,456.9562,225.375,479.4562,225.375,468.2062,191.625" style="stroke:#374151;stroke-width:1.875;stroke-linejoin:miter;stroke-miterlimit:10;"/></g><!--reverse link TextSplitter to RecursiveTokenChunker--><g class="link" data-entity-1="ent0003" data-entity-2="ent0004" data-link-type="extension" data-source-line="99" id="lnk11"><path codeLine="99" d="M468.2062,609.9187 C468.2062,644.4562 468.2062,646.3687 468.2062,677.6062" fill="none" id="TextSplitter-backto-RecursiveTokenChunker" style="stroke:#374151;stroke-width:1.875;"/><polygon fill="none" points="468.2062,576.1687,456.9562,609.9187,479.4562,609.9187,468.2062,576.1687" style="stroke:#374151;stroke-width:1.875;stroke-linejoin:miter;stroke-miterlimit:10;"/></g><!--reverse link TextSplitter to TransformerTokenChunker--><g class="link" data-entity-1="ent0003" data-entity-2="ent0005" data-link-type="extension" data-source-line="100" id="lnk12"><path codeLine="100" d="M715.9124,610.2375 C715.9124,658.9687 715.9124,666.6562 715.9124,666.6562 C715.9124,666.6562 734.8499,666.6562 761.7749,666.6562" fill="none" id="TextSplitter-backto-TransformerTokenChunker" style="stroke:#374151;stroke-width:1.875;"/><polygon fill="none" points="715.9124,576.4875,704.6624,610.2375,727.1624,610.2375,715.9124,576.4875" style="stroke:#374151;stroke-width:1.875;stroke-linejoin:miter;stroke-miterlimit:10;"/></g><!--reverse link TextSplitter to KamradtSemanticChunker--><g class="link" data-entity-1="ent0003" data-entity-2="ent0006" data-link-type="extension" data-source-line="101" id="lnk13"><path codeLine="101" d="M228.7874,610.3688 C228.7874,726.3375 228.7874,850.8562 228.7874,966.7312" fill="none" id="TextSplitter-backto-KamradtSemanticChunker" style="stroke:#374151;stroke-width:1.875;"/><polygon fill="none" points="228.7874,576.6188,217.5374,610.3688,240.0374,610.3688,228.7874,576.6188" style="stroke:#374151;stroke-width:1.875;stroke-linejoin:miter;stroke-miterlimit:10;"/></g><!--reverse link TextSplitter to ClusterSemanticChunker--><g class="link" data-entity-1="ent0003" data-entity-2="ent0007" data-link-type="extension" data-source-line="102" id="lnk14"><path codeLine="102" d="M707.6249,610.3688 C707.6249,734.5687 707.6249,873.525 707.6249,990.7125" fill="none" id="TextSplitter-backto-ClusterSemanticChunker" style="stroke:#374151;stroke-width:1.875;"/><polygon fill="none" points="707.6249,576.6188,696.3749,610.3688,718.8749,610.3688,707.6249,576.6188" style="stroke:#374151;stroke-width:1.875;stroke-linejoin:miter;stroke-miterlimit:10;"/></g><!--reverse link TextSplitter to RecursiveSemanticChunker--><g class="link" data-entity-1="ent0003" data-entity-2="ent0008" data-link-type="extension" data-source-line="103" id="lnk15"><path codeLine="103" d="M177.8999,422.9062 C109.2749,422.9062 87.5249,422.9062 87.5249,422.9062 C87.5249,422.9062 87.5249,1493.5313 87.5249,1493.5313 C87.5249,1493.5313 113.6249,1493.5313 149.8124,1493.5313" fill="none" id="TextSplitter-backto-RecursiveSemanticChunker" style="stroke:#374151;stroke-width:1.875;"/><polygon fill="none" points="211.6499,422.9062,177.8999,411.6562,177.8999,434.1562,211.6499,422.9062" style="stroke:#374151;stroke-width:1.875;stroke-linejoin:miter;stroke-miterlimit:10;"/></g><!--link RecursiveTokenChunker to TransformerTokenChunker--><!--link RecursiveTokenChunker to KamradtSemanticChunker--><!--link TransformerTokenChunker to ClusterSemanticChunker--><!--link KamradtSemanticChunker to RecursiveSemanticChunker--><!--link ClusterSemanticChunker to Tokenizer--><!--reverse link ClusterSemanticChunker to RecursiveTokenChunker--><g class="link" data-entity-1="ent0007" data-entity-2="ent0004" data-link-type="composition" data-source-line="111" id="lnk21"><path codeLine="111" d="M699.3562,968.1937 C699.3562,879.975 699.3562,801.6562 699.3562,801.6562 C699.3562,801.6562 696.5999,801.6562 691.6687,801.6562" fill="none" id="ClusterSemanticChunker-backto-RecursiveTokenChunker" style="stroke:#374151;stroke-width:1.875;"/><polygon fill="#374151" points="699.3562,990.6937,706.8562,979.4437,699.3562,968.1937,691.8562,979.4437,699.3562,990.6937" style="stroke:#374151;stroke-width:1.875;stroke-linejoin:miter;stroke-miterlimit:10;"/></g><!--reverse link RecursiveSemanticChunker to RecursiveTokenChunker--><g class="link" data-entity-1="ent0008" data-entity-2="ent0004" data-link-type="composition" data-source-line="112" id="lnk22"><path codeLine="112" d="M602.7187,1373.5313 C639.8624,1373.5313 644.2874,1373.5313 644.2874,1373.5313 C644.2874,1373.5313 644.2874,1033.9875 644.2874,864.8812" fill="none" id="RecursiveSemanticChunker-backto-RecursiveTokenChunker" style="stroke:#374151;stroke-width:1.875;"/><polygon fill="#374151" points="580.2187,1373.5313,591.4687,1381.0313,602.7187,1373.5313,591.4687,1366.0313,580.2187,1373.5313" style="stroke:#374151;stroke-width:1.875;stroke-linejoin:miter;stroke-miterlimit:10;"/></g><!--link TransformerTokenChunker to Tokenizer--><g class="link" data-entity-1="ent0005" data-entity-2="ent0009" data-link-type="dependency" data-source-line="113" id="lnk23"><path codeLine="113" d="M1104.2062,889.1062 C1104.2062,1093.7063 1104.2062,1493.5313 1104.2062,1493.5313 C1104.2062,1493.5313 1100.0624,1493.5313 1080.6187,1493.5313" fill="none" id="TransformerTokenChunker-to-Tokenizer" style="stroke:#374151;stroke-width:1.875;stroke-dasharray:13.125,13.125;"/><polygon fill="#374151" points="1071.2437,1493.5313,1088.1187,1501.0313,1080.6187,1493.5313,1088.1187,1486.0313,1071.2437,1493.5313" style="stroke:#374151;stroke-width:1.875;stroke-linejoin:miter;stroke-miterlimit:10;"/></g><g class="legend" data-source-line="115"><rect fill="none" height="399.4775" rx="14.0625" ry="14.0625" style="stroke:#000000;stroke-width:1.875;" width="1165.1624" x="22.5" y="1703.5313"/><text fill="#000000" font-family="sans-serif" font-size="26.25" font-weight="700" lengthAdjust="spacing" textLength="109.1913" x="41.0138" y="1741.0221">Symbol</text><text fill="#000000" font-family="sans-serif" font-size="26.25" font-weight="700" lengthAdjust="spacing" textLength="161.8066" x="179.5569" y="1741.0221">Bedeutung</text><text fill="#000000" font-family="sans-serif" font-size="26.25" lengthAdjust="spacing" textLength="8.3441" x="31.875" y="1780.3092">&#160;</text><text fill="#038048" font-family="sans-serif" font-size="33.75" lengthAdjust="spacing" textLength="29.4489" x="40.2191" y="1778.5404">&#9675;</text><text fill="#000000" font-family="sans-serif" font-size="26.25" lengthAdjust="spacing" textLength="8.3441" x="69.668" y="1780.3092">&#160;</text><text fill="#000000" font-family="sans-serif" font-size="26.25" lengthAdjust="spacing" textLength="8.3441" x="170.4181" y="1771.5787">&#160;</text><text fill="#000000" font-family="sans-serif" font-size="26.25" font-weight="700" lengthAdjust="spacing" textLength="271.4722" x="178.7622" y="1771.5787">public (+) Attribut</text><text fill="#000000" font-family="sans-serif" font-size="26.25" lengthAdjust="spacing" textLength="298.2477" x="450.2344" y="1771.5787">: von au&#223;en zugreifbar</text><text fill="#000000" font-family="sans-serif" font-size="26.25" lengthAdjust="spacing" textLength="8.3441" x="31.875" y="1819.5963">&#160;</text><text fill="#038048" font-family="sans-serif" font-size="33.75" lengthAdjust="spacing" textLength="29.4489" x="40.2191" y="1817.8275">&#9679;</text><text fill="#000000" font-family="sans-serif" font-size="26.25" lengthAdjust="spacing" textLength="8.3441" x="69.668" y="1819.5963">&#160;</text><text fill="#000000" font-family="sans-serif" font-size="26.25" lengthAdjust="spacing" textLength="8.3441" x="170.4181" y="1810.8658">&#160;</text><text fill="#000000" font-family="sans-serif" font-size="26.25" font-weight="700" lengthAdjust="spacing" textLength="283.8794" x="178.7622" y="1810.8658">public (+) Methode</text><text fill="#000000" font-family="sans-serif" font-size="26.25" lengthAdjust="spacing" textLength="286.3275" x="462.6416" y="1810.8658">: von au&#223;en aufrufbar</text><text fill="#000000" font-family="sans-serif" font-size="26.25" lengthAdjust="spacing" textLength="8.3441" x="31.875" y="1858.8834">&#160;</text><text fill="#E5B700" font-family="sans-serif" font-size="33.75" lengthAdjust="spacing" textLength="25.9552" x="40.2191" y="1857.1146">&#9671;</text><text fill="#000000" font-family="sans-serif" font-size="26.25" lengthAdjust="spacing" textLength="8.3441" x="66.1743" y="1858.8834">&#160;</text><text fill="#000000" font-family="sans-serif" font-size="26.25" lengthAdjust="spacing" textLength="8.3441" x="170.4181" y="1850.153">&#160;</text><text fill="#000000" font-family="sans-serif" font-size="26.25" font-weight="700" lengthAdjust="spacing" textLength="425.7294" x="178.7622" y="1850.153">protected/intern (#) Attribut</text><text fill="#000000" font-family="sans-serif" font-size="26.25" lengthAdjust="spacing" textLength="553.0444" x="604.4916" y="1850.153">: in Python mit einem Unterstrich (_name)</text><text fill="#000000" font-family="sans-serif" font-size="26.25" lengthAdjust="spacing" textLength="8.3441" x="31.875" y="1898.1705">&#160;</text><text fill="#E5B700" font-family="sans-serif" font-size="33.75" lengthAdjust="spacing" textLength="25.9552" x="40.2191" y="1896.4017">&#9670;</text><text fill="#000000" font-family="sans-serif" font-size="26.25" lengthAdjust="spacing" textLength="8.3441" x="66.1743" y="1898.1705">&#160;</text><text fill="#000000" font-family="sans-serif" font-size="26.25" lengthAdjust="spacing" textLength="8.3441" x="170.4181" y="1889.4401">&#160;</text><text fill="#000000" font-family="sans-serif" font-size="26.25" font-weight="700" lengthAdjust="spacing" textLength="438.1366" x="178.7622" y="1889.4401">protected/intern (#) Methode</text><text fill="#000000" font-family="sans-serif" font-size="26.25" lengthAdjust="spacing" textLength="553.0444" x="616.8988" y="1889.4401">: in Python mit einem Unterstrich (_name)</text><text fill="#000000" font-family="sans-serif" font-size="26.25" lengthAdjust="spacing" textLength="8.3441" x="31.875" y="1935.275">&#160;</text><text fill="#000000" font-family="sans-serif" font-size="31.875" lengthAdjust="spacing" textLength="96.092" x="40.2191" y="1933.9484">&#9398; / &#9400;</text><text fill="#000000" font-family="sans-serif" font-size="26.25" lengthAdjust="spacing" textLength="8.3441" x="136.3111" y="1935.275">&#160;</text><text fill="#000000" font-family="sans-serif" font-size="26.25" lengthAdjust="spacing" textLength="361.5656" x="178.7622" y="1928.7272">Abstrakte / konkrete Klasse</text><text fill="#000000" font-family="sans-serif" font-size="26.25" lengthAdjust="spacing" textLength="8.3441" x="31.875" y="1974.5621">&#160;</text><text fill="#000000" font-family="sans-serif" font-size="33.75" lengthAdjust="spacing" textLength="86.9128" x="40.2191" y="1972.7933">&#9651;&#9472;&#9472;&#9472;</text><text fill="#000000" font-family="sans-serif" font-size="26.25" lengthAdjust="spacing" textLength="8.3441" x="127.132" y="1974.5621">&#160;</text><text fill="#000000" font-family="sans-serif" font-size="26.25" lengthAdjust="spacing" textLength="8.3441" x="170.4181" y="1965.8317">&#160;</text><text fill="#000000" font-family="sans-serif" font-size="26.25" font-weight="700" lengthAdjust="spacing" textLength="156.7694" x="178.7622" y="1965.8317">Vererbung</text><text fill="#000000" font-family="sans-serif" font-size="26.25" lengthAdjust="spacing" textLength="443.3917" x="335.5316" y="1965.8317">: Dreieck zeigt auf die Oberklasse</text><text fill="#000000" font-family="sans-serif" font-size="26.25" lengthAdjust="spacing" textLength="8.3441" x="31.875" y="2013.8492">&#160;</text><text fill="#000000" font-family="sans-serif" font-size="33.75" lengthAdjust="spacing" textLength="86.9128" x="40.2191" y="2012.0804">&#9670;&#9472;&#9472;&#9472;</text><text fill="#000000" font-family="sans-serif" font-size="26.25" lengthAdjust="spacing" textLength="8.3441" x="127.132" y="2013.8492">&#160;</text><text fill="#000000" font-family="sans-serif" font-size="26.25" lengthAdjust="spacing" textLength="8.3441" x="170.4181" y="2005.1188">&#160;</text><text fill="#000000" font-family="sans-serif" font-size="26.25" font-weight="700" lengthAdjust="spacing" textLength="185.4419" x="178.7622" y="2005.1188">Komposition</text><text fill="#000000" font-family="sans-serif" font-size="26.25" lengthAdjust="spacing" textLength="513.5028" x="364.2041" y="2005.1188">: Klasse besitzt das verbundene Objekt</text><text fill="#000000" font-family="sans-serif" font-size="26.25" lengthAdjust="spacing" textLength="8.3441" x="31.875" y="2053.1364">&#160;</text><text fill="#000000" font-family="sans-serif" font-size="33.75" lengthAdjust="spacing" textLength="66.5936" x="40.2191" y="2051.3676">&#9548;&#9548;&#9655;</text><text fill="#000000" font-family="sans-serif" font-size="26.25" lengthAdjust="spacing" textLength="8.3441" x="106.8127" y="2053.1364">&#160;</text><text fill="#000000" font-family="sans-serif" font-size="26.25" lengthAdjust="spacing" textLength="8.3441" x="170.4181" y="2044.4059">&#160;</text><text fill="#000000" font-family="sans-serif" font-size="26.25" font-weight="700" lengthAdjust="spacing" textLength="197.58" x="178.7622" y="2044.4059">Abh&#228;ngigkeit</text><text fill="#000000" font-family="sans-serif" font-size="26.25" lengthAdjust="spacing" textLength="565.1953" x="376.3422" y="2044.4059">: Klasse verwendet das verbundene Objekt</text><text fill="#000000" font-family="sans-serif" font-size="26.25" lengthAdjust="spacing" textLength="8.3441" x="31.875" y="2083.693">&#160;</text><text fill="#000000" font-family="sans-serif" font-size="26.25" lengthAdjust="spacing" text-decoration="underline" textLength="121.8549" x="40.2191" y="2083.693">method()</text><text fill="#000000" font-family="sans-serif" font-size="26.25" lengthAdjust="spacing" textLength="8.3441" x="162.074" y="2083.693">&#160;</text><text fill="#000000" font-family="sans-serif" font-size="26.25" lengthAdjust="spacing" textLength="8.3441" x="170.4181" y="2083.693">&#160;</text><text fill="#000000" font-family="sans-serif" font-size="26.25" font-weight="700" lengthAdjust="spacing" textLength="117.3047" x="178.7622" y="2083.693">statisch</text><text fill="#000000" font-family="sans-serif" font-size="26.25" lengthAdjust="spacing" textLength="612.5043" x="296.0669" y="2083.693">: Aufruf &#252;ber die Klasse statt &#252;ber eine Instanz</text><line style="stroke:#000000;stroke-width:1.875;" x1="31.875" x2="1178.2874" y1="1716.6563" y2="1716.6563"/><line style="stroke:#000000;stroke-width:1.875;" x1="31.875" x2="1178.2874" y1="1747.2129" y2="1747.2129"/><line style="stroke:#000000;stroke-width:1.875;" x1="31.875" x2="1178.2874" y1="1786.5" y2="1786.5"/><line style="stroke:#000000;stroke-width:1.875;" x1="31.875" x2="1178.2874" y1="1825.7871" y2="1825.7871"/><line style="stroke:#000000;stroke-width:1.875;" x1="31.875" x2="1178.2874" y1="1865.0742" y2="1865.0742"/><line style="stroke:#000000;stroke-width:1.875;" x1="31.875" x2="1178.2874" y1="1904.3613" y2="1904.3613"/><line style="stroke:#000000;stroke-width:1.875;" x1="31.875" x2="1178.2874" y1="1941.4658" y2="1941.4658"/><line style="stroke:#000000;stroke-width:1.875;" x1="31.875" x2="1178.2874" y1="1980.7529" y2="1980.7529"/><line style="stroke:#000000;stroke-width:1.875;" x1="31.875" x2="1178.2874" y1="2020.04" y2="2020.04"/><line style="stroke:#000000;stroke-width:1.875;" x1="31.875" x2="1178.2874" y1="2059.3271" y2="2059.3271"/><line style="stroke:#000000;stroke-width:1.875;" x1="31.875" x2="1178.2874" y1="2089.8838" y2="2089.8838"/><line style="stroke:#000000;stroke-width:1.875;" x1="31.875" x2="31.875" y1="1716.6563" y2="2089.8838"/><line style="stroke:#000000;stroke-width:1.875;" x1="170.4181" x2="170.4181" y1="1716.6563" y2="2089.8838"/><line style="stroke:#000000;stroke-width:1.875;" x1="1178.2874" x2="1178.2874" y1="1716.6563" y2="2089.8838"/></g><?plantuml-src pLTFQ-D65B_xKmphYzFKSPpD4cDSGU9DeAHBboRTIobY93rBiv9cnCp8-RC9zBGzj51OsjrZB_q6XRQ7tl9DyadwHb9iIPRYR2YbnZZAUx_t_y-Cj4Y85iGHMekOU4o2gvdWdOuA6K-ef35ng1lwKgJScuf8I78MC0qblWge9yuOzycCHghCYHW7VP404L87eiJWmWC52HcEIaH9UMY8kpibefSmH6sNA6v4bI9lEWG_1pNNkaTxHwEZQSuJqWDPq9_kxGwV3JFwlfJYR9Ly9BWkgCFXSBIpjw2Ui4iWmvrSM6l9d5J3aZ7iN7Sw2Jf2VI1FfeUlzbySFYVJ8ENeil-ay9GwIalgwiBz0weWWu0i0ERpvWvrJJPL4Z5jQpZNFVCp9iZP69ClcD8JVBGo8RJSeFmKyIT6N5UqTstNMBGLkZqcZEiLZfY3Z6XIPqR0VHtOivHdlJ4cKnf5r8cWX0a14XkhXoNIGewneKHKOgD_BB6ppb6OAwW1-lt7vo0JKffgvgB8J8hO3bBVnzpFq92jHGWS8vQzhQqj52udf-JWQy6uxGbNzSpFfsGHoaPcjOICGVfWPwwfNlwd2cyiKLwPhy1DfM9pE3LUhJP0Tvb2rHHdrsPg2R4b-73Udig7vwzhrw2bYDJz8PtYsAgPa9YMbg0sOvpsoEOqXfLS6iwOd03Nm5qewLfABmfO8oax0PatRhLX7vM1JHUtYCwxHLMmTwehKH_JM59Fdq1CEJRUHmIzwS6SkNKY98f5PhHcaQ3bsOFO0S_3Pdv8hhhBRX-Jbz9WS0DxfoiPV6oAOWVrOGFcBgXYf0oqXAAHcqPKBt7B8DP9k48P0nwoQSc0JfDYsLIAC8rIXLDyJn7MRwuyV6qIrZYSfH8jAd6dhbHiUcwxkJV_GYzsRHyqhkcOHLGoVM775DVdUP4Cxb4fwKK9BHBDOXfXllqOKqwDR_L4Dw-X_q7gwDnlFPV-cpPTstHvbcUCUujKwq222aJa5U3bs5QNuztaaSd4evfcLCigv_cUatVDdiDDuk9EQAeCXhtAkJONbVB5OtBLxrVFmyhD8MCtLtOLrt8CD22RLsS3i7cyx_En3kqqdxVzRmBcUS2_bSmFTDzgTNwDEDvwEKgt1THoCDR5My9iEM7gqgsnjop7klpoR6YJ-AIr2rhNIBj8MrAsjYgkH7YnuLxnLf8rxzLdvEGYTaHadWx0WrId-CPnbJF9n3LNzt5t--beUtTaJR9TCXnPjnz-c0pCFzPaa44i0tQi97KYvfBUviRYIZyPEDQOp0KdDBtv5JYvJ7q9REPG-G0pFwqpymBm5SY35IiqdScqqSZXiuEzxUsoaU-RZKYXyQqDl05k1v2SzBhrg1WdBo_GFYSnqmHmtSNaQmCszt8t8BtiehBn01VUFjo5IiGVxK5kSi-wVVS76P3RTtyLXf6tdxqXX1gG4GeUIi37OxDQeIwFBh___VRdx_BlKWNw_0eaI0URA7VmETOQt91S0lErgGg-30FvqW4Pjcd-yBPPyx684pnJp3cNwovySm29bvfuL95vPXi7qTXu3Q5kqF_BZ-Rx_i-AydqdkFcD-ymFWUcAUbHvXbC3QmsaLfoLfhSn6QI5skm5Ihb1hd4_QqfoypU6d-MXC65GkY2R6fBFkJaqBr4tMiwdjlCF?></g></svg>